<?xml version="1.0" standalone="no"?>
<!DOCTYPE svg PUBLIC "-//W3C//DTD SVG 20010904//EN"
 "http://www.w3.org/TR/2001/REC-SVG-20010904/DTD/svg10.dtd">
<svg version="1.0" xmlns="http://www.w3.org/2000/svg"
 width="700.000000pt" height="700.000000pt" viewBox="0 0 700.000000 700.000000"
 preserveAspectRatio="xMidYMid meet">
<metadata>
Created by potrace 1.14, written by Peter Selinger 2001-2017
</metadata>
<g transform="translate(0.000000,700.000000) scale(0.100000,-0.100000)"
fill="#000000" stroke="none">
<path d="M1717 6345 c-1 -1 -36 -5 -77 -9 -352 -29 -681 -251 -859 -578 -112
-208 -151 -485 -101 -727 12 -58 25 -112 30 -121 7 -12 -2 -28 -36 -64 -118
-127 -201 -265 -253 -421 -63 -188 -72 -386 -26 -599 29 -138 144 -359 241
-465 20 -21 22 -34 22 -141 0 -493 300 -904 768 -1054 137 -44 196 -50 472
-51 116 0 212 -2 213 -5 1 -3 2 -293 3 -645 2 -711 -1 -676 70 -747 83 -84
224 -80 308 9 59 62 57 43 58 742 1 353 4 641 8 642 4 0 108 2 232 3 232 3
266 5 385 33 364 84 667 368 783 733 38 118 50 202 50 348 l1 113 33 37 c46
51 92 118 135 199 131 248 159 563 73 838 -48 153 -138 305 -250 421 l-50 51
19 69 c29 106 33 129 36 264 10 361 -145 684 -435 905 -64 49 -252 152 -292
159 -7 1 -33 8 -58 15 -55 16 -75 20 -120 27 -19 2 -43 7 -54 10 -24 8 -192 7
-264 -1 -102 -12 -245 -55 -349 -107 l-101 -50 -64 35 c-64 36 -213 92 -271
103 -18 3 -39 7 -47 9 -55 11 -225 26 -233 20z m192 -459 c82 -21 172 -65 236
-116 71 -56 117 -79 167 -84 53 -5 134 20 169 53 78 74 196 131 329 158 53 12
198 5 260 -11 240 -62 421 -241 480 -474 38 -150 22 -301 -48 -457 -34 -76
-40 -98 -38 -145 4 -81 35 -131 116 -187 125 -86 241 -253 265 -381 3 -15 7
-38 11 -52 13 -59 6 -198 -15 -274 -35 -129 -84 -210 -192 -318 -79 -79 -104
-132 -95 -205 3 -26 9 -98 12 -158 5 -96 3 -122 -15 -190 -58 -209 -207 -376
-404 -450 -98 -36 -103 -37 -359 -42 l-236 -5 -1 428 0 429 278 280 c284 286
292 296 305 384 7 47 -22 126 -58 163 -62 61 -142 81 -231 57 -31 -9 -69 -39
-167 -136 l-127 -126 0 341 c0 316 -1 344 -19 384 -65 143 -238 177 -349 69
-69 -66 -69 -67 -69 -603 1 -263 1 -478 0 -478 0 0 -57 56 -126 123 -104 103
-133 126 -172 137 -171 48 -325 -107 -273 -274 15 -47 43 -78 295 -331 l278
-280 -1 -280 0 -280 -216 -2 c-173 -1 -231 2 -290 16 -350 81 -568 412 -503
763 23 121 7 168 -90 268 -94 96 -146 177 -180 281 -67 203 -28 434 104 604
39 50 88 95 170 157 98 74 120 180 62 295 -190 374 -8 816 388 942 98 31 245
34 349 7z"/>
<path d="M4592 5747 c-51 -19 -95 -60 -121 -112 -33 -66 -26 -158 15 -213 16
-20 176 -185 357 -366 l330 -330 -176 -87 c-134 -68 -182 -97 -206 -126 -49
-59 -62 -127 -40 -208 9 -34 82 -112 490 -520 l479 -481 -280 -93 c-154 -51
-295 -103 -312 -115 -86 -57 -118 -171 -77 -266 15 -34 114 -140 424 -450
l405 -405 -1072 -5 c-1024 -5 -1075 -6 -1111 -24 -141 -70 -165 -258 -46 -360
58 -50 94 -56 311 -56 l194 0 -1 -332 c0 -183 3 -351 9 -373 31 -133 186 -206
306 -145 49 25 71 48 102 105 20 39 21 52 21 393 l1 352 924 0 c664 0 935 3
963 11 83 25 148 109 152 197 6 99 3 101 -503 608 -258 258 -466 471 -462 475
4 3 132 48 284 99 226 75 284 98 316 126 68 58 93 165 58 249 -12 27 -160 182
-506 529 l-490 490 172 87 c189 96 226 126 248 204 14 51 8 115 -14 161 -20
39 -930 949 -971 970 -40 21 -132 27 -173 11z"/>
</g>
</svg>
